<svg width="11" height="8" viewBox="0 0 11 8" fill="none" xmlns="http://www.w3.org/2000/svg">
<path d="M3.24963 6.44998L1.20796 4.40832C1.15457 4.35428 1.09099 4.31137 1.02089 4.28209C0.9508 4.25281 0.875591 4.23773 0.799626 4.23773C0.723662 4.23773 0.648452 4.25281 0.578359 4.28209C0.508265 4.31137 0.444681 4.35428 0.391293 4.40832C0.337253 4.46171 0.294348 4.52529 0.265065 4.59538C0.235782 4.66548 0.220703 4.74069 0.220703 4.81665C0.220703 4.89261 0.235782 4.96782 0.265065 5.03792C0.294348 5.10801 0.337253 5.1716 0.391293 5.22498L2.83546 7.66915C3.06296 7.89665 3.43046 7.89665 3.65796 7.66915L9.84129 1.49165C9.89533 1.43826 9.93824 1.37468 9.96752 1.30458C9.9968 1.23449 10.0119 1.15928 10.0119 1.08332C10.0119 1.00735 9.9968 0.932144 9.96752 0.86205C9.93824 0.791956 9.89533 0.728373 9.84129 0.674984C9.7879 0.620944 9.72432 0.578039 9.65423 0.548756C9.58413 0.519473 9.50892 0.504395 9.43296 0.504395C9.357 0.504395 9.28179 0.519473 9.21169 0.548756C9.1416 0.578039 9.07801 0.620944 9.02463 0.674984L3.24963 6.44998Z" fill="white"/>
</svg>
