<svg width="70" height="70" viewBox="0 0 70 70" fill="none" xmlns="http://www.w3.org/2000/svg">
<path d="M57.5587 49.3545L49.2272 49.3548C47.1021 52.6638 44.2692 55.4646 40.9395 57.5597H57.5587V63.71L70.0001 53.4581L57.5587 43.2042V49.3545Z" fill="#131414"/>
<path d="M26.9526 57.5519C39.3384 57.4673 49.3555 47.4071 49.3555 35.001C49.3555 23.2348 40.3438 13.5832 28.8477 12.5457V6.29004L16.543 16.5439L28.8477 26.7958V20.8528C35.7861 21.8586 41.1523 27.7884 41.1523 35.001C41.1523 42.9158 34.7117 49.3564 26.7969 49.3564H0V57.5596H26.9619C26.9578 57.5571 26.9566 57.5544 26.9526 57.5519Z" fill="#131414"/>
<path d="M16.7821 45.2549C14.1117 42.6463 12.4414 39.0195 12.4414 35.001C12.4414 30.2346 14.8021 26.0328 18.3892 23.4205L11.9447 18.0508C7.2301 22.1854 4.23828 28.2377 4.23828 35.001C4.23828 38.7068 5.18984 42.1706 6.77318 45.2549H16.7821Z" fill="#131414"/>
</svg>
