<svg width="70" height="70" viewBox="0 0 70 70" fill="none" xmlns="http://www.w3.org/2000/svg">
<path d="M24.5439 45.4125C21.146 48.0812 18.9585 52.2229 18.9585 56.875V61.25H10.2085C7.78766 61.25 5.8335 59.2958 5.8335 56.875V53.9583C5.8335 48.3146 10.3981 43.75 16.0418 43.75H18.9585C21.0293 43.75 22.9397 44.3625 24.5439 45.4125Z" fill="#131414"/>
<path d="M52.5 43.75C56.1244 43.75 59.0625 40.8119 59.0625 37.1875C59.0625 33.5631 56.1244 30.625 52.5 30.625C48.8756 30.625 45.9375 33.5631 45.9375 37.1875C45.9375 40.8119 48.8756 43.75 52.5 43.75Z" fill="#131414"/>
<path d="M17.5 43.75C21.1244 43.75 24.0625 40.8119 24.0625 37.1875C24.0625 33.5631 21.1244 30.625 17.5 30.625C13.8756 30.625 10.9375 33.5631 10.9375 37.1875C10.9375 40.8119 13.8756 43.75 17.5 43.75Z" fill="#131414"/>
<path d="M64.1665 53.9583V56.875C64.1665 59.2958 62.2123 61.25 59.7915 61.25H51.0415V56.875C51.0415 52.2229 48.854 48.0812 45.4561 45.4125C47.0602 44.3625 48.9706 43.75 51.0415 43.75H53.9581C59.6019 43.75 64.1665 48.3146 64.1665 53.9583Z" fill="#131414"/>
<path d="M34.9998 45.2083C39.4296 45.2083 43.0207 41.6173 43.0207 37.1875C43.0207 32.7577 39.4296 29.1666 34.9998 29.1666C30.5701 29.1666 26.979 32.7577 26.979 37.1875C26.979 41.6173 30.5701 45.2083 34.9998 45.2083Z" fill="#131414"/>
<path d="M36.4583 45.2084H33.5417C27.109 45.2084 21.875 50.4423 21.875 56.875V61.25C21.875 63.6621 23.8379 65.625 26.25 65.625H43.75C46.1621 65.625 48.125 63.6621 48.125 61.25V56.875C48.125 50.4423 42.891 45.2084 36.4583 45.2084Z" fill="#131414"/>
<path d="M56.146 24.3309L52.6271 25.5821C51.6281 25.9365 50.5854 25.1796 50.6146 24.1194L50.7167 20.3861L48.4388 17.4257C47.7927 16.5857 48.1908 15.3592 49.2073 15.0588L52.7904 14.003L54.9021 10.9215C55.5015 10.048 56.7906 10.048 57.39 10.9215L59.5017 14.003L63.0848 15.0588C64.1013 15.3578 64.4994 16.5857 63.8533 17.4257L61.5754 20.3861L61.6775 24.1194C61.7067 25.1782 60.6625 25.9365 59.665 25.5821L56.146 24.3309Z" fill="#131414"/>
<path d="M13.8541 24.3309L10.3351 25.5821C9.33614 25.9365 8.29344 25.1796 8.3226 24.1194L8.42469 20.3861L6.14677 17.4257C5.50073 16.5857 5.89886 15.3592 6.91531 15.0588L10.4984 14.003L12.6101 10.9215C13.2095 10.048 14.4986 10.048 15.098 10.9215L17.2097 14.003L20.7928 15.0588C21.8093 15.3578 22.2074 16.5857 21.5613 17.4257L19.2834 20.3861L19.3855 24.1194C19.4147 25.1782 18.3705 25.9365 17.373 25.5821L13.8541 24.3309Z" fill="#131414"/>
<path d="M34.9998 21.0496L30.8275 22.5327C29.6434 22.9542 28.4067 22.0544 28.4417 20.7987L28.5627 16.3727L25.8619 12.8625C25.0963 11.8664 25.5688 10.4125 26.7734 10.0567L31.0215 8.80395L33.5254 5.15083C34.2357 4.11395 35.7654 4.11395 36.4757 5.15083L38.9796 8.80395L43.2277 10.0567C44.4323 10.4125 44.9048 11.8664 44.1392 12.8625L41.4384 16.3727L41.5594 20.7987C41.5944 22.0544 40.3563 22.9542 39.1736 22.5327L34.9998 21.0496Z" fill="#131414"/>
</svg>
