<svg width="70" height="70" viewBox="0 0 70 70" fill="none" xmlns="http://www.w3.org/2000/svg">
<g clip-path="url(#clip0_107_24)">
<path d="M12.3279 42.7947L27.6506 27.472L31.3107 31.1362C33.0364 32.8706 35.3333 33.8261 37.7777 33.8261C40.2221 33.8261 42.5189 32.8706 44.2454 31.1355C47.7957 27.5673 47.7957 21.7617 44.2454 18.1934L38.5066 12.4395L41.3574 9.93248C48.5283 3.64847 59.4357 4.36748 65.7197 11.5384C72.0037 18.7093 71.2847 29.6167 64.1138 35.9007L60.018 39.6862L55.471 35.1392C52.8255 32.4937 48.5209 32.4937 45.8755 35.1392C44.6139 36.4007 43.9118 38.0719 43.8902 39.8526C42.1819 39.8744 40.4805 40.5341 39.18 41.8346C37.8788 43.1359 37.219 44.8386 37.198 46.5477C35.4887 46.5687 33.786 47.2285 32.4847 48.5298C29.8394 51.1753 29.8392 55.4799 32.4846 58.1254L36.1264 61.7671L33.0465 64.6136C30.9454 66.4549 27.7493 66.2442 25.908 64.143C24.0667 62.0419 24.2774 58.8458 26.3786 57.0046C24.2775 58.8459 21.0814 58.6353 19.2402 56.534C17.3989 54.4329 17.6096 51.2369 19.7108 49.3957L19.7106 49.3954C17.6095 51.2367 14.4134 51.026 12.5721 48.9248C10.9942 47.1242 11.0855 44.851 12.3279 42.7947Z" fill="#131414"/>
<path d="M5.05649 9.18883C11.7986 2.44682 22.7296 2.44682 29.4717 9.18883L41.3381 21.0866C42.7552 22.511 43.1905 24.7034 42.4431 26.5652C41.6299 28.5907 39.5355 29.8876 37.359 29.7069C36.1589 29.6072 35.0283 29.068 34.1852 28.2101L27.6525 21.67L10.3874 38.9349L5.05663 33.6039C-1.68552 26.8619 -1.68552 15.9308 5.05649 9.18883Z" fill="#131414"/>
<path d="M54.6255 47.6841L48.7757 41.8343C48.2689 41.3275 47.9897 40.6536 47.9897 39.9368C47.9897 39.22 48.2689 38.5462 48.7757 38.0393C49.2988 37.5162 49.9863 37.2546 50.6733 37.2546C51.3605 37.2546 52.0476 37.5162 52.5708 38.0394L58.4204 43.8891C59.4626 44.9313 59.4659 46.6242 58.4316 47.6716C58.4146 47.6885 58.3969 47.7045 58.3797 47.721C57.8777 48.2034 57.2213 48.4701 56.5229 48.4701C55.8062 48.4701 55.1323 48.1909 54.6255 47.6841Z" fill="#131414"/>
<path d="M47.9301 54.3797L42.0803 48.5299C41.5735 48.0229 41.2944 47.3492 41.2944 46.6324C41.2944 45.9156 41.5736 45.2418 42.0803 44.7348C42.5872 44.228 43.261 43.9489 43.9778 43.9489C44.6946 43.9489 45.3685 44.228 45.8753 44.7348L51.7251 50.5846C52.2319 51.0916 52.5111 51.7653 52.5111 52.4822C52.5111 53.195 52.2347 53.8649 51.7332 54.3709C51.7221 54.3819 51.7106 54.3921 51.6995 54.4029C50.6512 55.4245 48.9682 55.4176 47.9301 54.3797Z" fill="#131414"/>
<path d="M41.2346 61.0749L35.3848 55.2252C34.3386 54.1789 34.3385 52.4763 35.3848 51.4302C35.8917 50.9234 36.5655 50.644 37.2823 50.644C37.9991 50.644 38.673 50.9232 39.1798 51.43L45.0296 57.2798C45.5364 57.7868 45.8156 58.4605 45.8156 59.1773C45.8156 59.8921 45.5378 60.5641 45.0336 61.0705C45.0281 61.076 45.0225 61.0809 45.017 61.0862C43.9696 62.1204 42.2769 62.1171 41.2346 61.0749Z" fill="#131414"/>
</g>
<defs>
<clipPath id="clip0_107_24">
<rect width="70" height="70" fill="white"/>
</clipPath>
</defs>
</svg>
