<svg width="80" height="80" viewBox="0 0 80 80" fill="none" xmlns="http://www.w3.org/2000/svg">
<g clip-path="url(#clip0_65_1030)">
<path d="M24.1344 27.1642C24.3469 27.3767 24.4797 27.6735 24.4797 27.997C24.4797 28.3204 24.3469 28.6173 24.1344 28.8298C23.9219 29.0423 23.6297 29.1751 23.3016 29.1751C22.9781 29.1751 22.6812 29.0423 22.4688 28.8298C22.2563 28.6173 22.1234 28.3204 22.1234 27.997C22.1234 27.6735 22.2563 27.3767 22.4688 27.1642C22.6812 26.9517 22.9781 26.8188 23.3016 26.8188C23.6297 26.8188 23.9219 26.9517 24.1344 27.1642ZM23.3016 50.8298C22.9781 50.8298 22.6812 50.9579 22.4688 51.1704C22.2563 51.3876 22.1234 51.6798 22.1234 52.0032C22.1234 52.3313 22.2563 52.6235 22.4688 52.8407C22.6812 53.0532 22.9781 53.1813 23.3016 53.1813C23.6297 53.1813 23.9219 53.0532 24.1344 52.8407C24.3469 52.6235 24.4797 52.3313 24.4797 52.0032C24.4797 51.6798 24.3469 51.3876 24.1344 51.1704C23.9219 50.9579 23.6297 50.8298 23.3016 50.8298ZM23.3016 38.822C22.9781 38.822 22.6812 38.9548 22.4688 39.1673C22.2563 39.3798 22.1234 39.6767 22.1234 40.0001C22.1234 40.3282 22.2563 40.6204 22.4688 40.8329C22.6812 41.0454 22.9781 41.1782 23.3016 41.1782C23.6297 41.1782 23.9219 41.0454 24.1344 40.8329C24.3469 40.6204 24.4797 40.3282 24.4797 40.0001C24.4797 39.6767 24.3469 39.3798 24.1344 39.1673C23.9219 38.9548 23.6297 38.822 23.3016 38.822ZM34.8359 49.7173V68.572C34.8359 70.6579 33.9906 72.5501 32.6219 73.9142C31.2531 75.2829 29.3625 76.1282 27.2766 76.1282C25.1859 76.1282 23.2984 75.2829 21.9312 73.9142C20.5625 72.5501 19.7172 70.6595 19.7172 68.572C19.7172 66.8938 20.2578 65.3517 21.175 64.1032C22.1188 62.8188 23.4562 61.8407 25.0062 61.3532C25.7109 61.136 26.1 60.3923 25.8828 59.6876C25.6609 58.9876 24.9172 58.5938 24.2125 58.8157C22.1125 59.4751 20.3016 60.7907 19.0297 62.5267C18.5156 63.2267 18.0906 63.9876 17.7672 64.8032C17.3906 64.9267 17.0047 65.0298 16.6063 65.1048C16.0391 65.2157 15.4406 65.2735 14.825 65.2735C12.2469 65.2735 9.90938 64.2282 8.22188 62.5407C6.52969 60.8485 5.48438 58.5142 5.48438 55.9376C5.48438 55.247 5.55938 54.5782 5.70156 53.936C5.83906 53.2985 6.0375 52.6907 6.29531 52.1251C6.32188 52.072 6.34844 52.0188 6.37031 51.961C6.63125 51.2704 6.28594 50.5032 5.59531 50.2423C4.00938 49.636 2.61875 48.311 1.61719 46.5345C0.603125 44.7267 0 42.4626 0 40.0001C0 37.5376 0.603125 35.2735 1.61719 33.472C2.61875 31.6907 4.00938 30.372 5.59531 29.7642V29.7595C5.62188 29.7501 5.64844 29.7376 5.675 29.7282C6.34375 29.422 6.63594 28.6345 6.33125 27.9657C6.06094 27.372 5.84844 26.7392 5.70156 26.0704C5.55938 25.4282 5.48438 24.7595 5.48438 24.0688C5.48438 21.4907 6.52969 19.1532 8.22188 17.4657C9.90938 15.7735 12.2484 14.7282 14.825 14.7282C15.4406 14.7282 16.0391 14.786 16.6063 14.897C17.0047 14.9767 17.3906 15.0735 17.7672 15.1985C18.0906 16.0142 18.5156 16.7798 19.0297 17.4751C20.3016 19.211 22.1125 20.5313 24.2125 21.1907C24.9172 21.4079 25.6609 21.0173 25.8828 20.3142C26.1 19.6142 25.7094 18.8657 25.0062 18.6485C23.4562 18.161 22.1188 17.1876 21.175 15.9032C20.2578 14.6548 19.7172 13.1079 19.7172 11.4345V11.4298C19.7172 9.34385 20.5625 7.45635 21.9312 6.0876C23.3 4.71885 25.1859 3.87354 27.2766 3.87354C29.3625 3.87354 31.2547 4.71885 32.6219 6.0876C33.9906 7.45635 34.8359 9.34697 34.8359 11.4329V30.2876H31.5578V27.9985C31.5578 27.2626 30.9594 26.6657 30.225 26.6657H26.9125C26.7172 26.1392 26.4125 25.6688 26.0219 25.2798C25.3266 24.5845 24.3656 24.1548 23.3031 24.1548C22.2453 24.1548 21.2828 24.5845 20.5875 25.2798C19.8922 25.9751 19.4578 26.936 19.4578 27.9985C19.4578 29.061 19.8922 30.022 20.5875 30.7173C21.2828 31.4126 22.2437 31.8423 23.3031 31.8423C24.3656 31.8423 25.3266 31.4126 26.0219 30.7173C26.4109 30.3282 26.7172 29.8579 26.9125 29.3313H28.8922V31.622C28.8922 32.3579 29.4906 32.9548 30.225 32.9548H34.8359V38.6688H26.9125C26.7172 38.1454 26.4125 37.672 26.0219 37.2876C25.3266 36.5876 24.3656 36.1579 23.3031 36.1579C22.2453 36.1579 21.2828 36.5876 20.5875 37.2876C19.8922 37.9829 19.4578 38.9438 19.4578 40.0032C19.4578 41.0657 19.8922 42.0267 20.5875 42.722C21.2828 43.4173 22.2437 43.847 23.3031 43.847C24.3656 43.847 25.3266 43.4173 26.0219 42.722C26.4109 42.3329 26.7172 41.8626 26.9125 41.336H34.8359V47.0548H30.225C29.4891 47.0548 28.8922 47.6485 28.8922 48.3876V50.6735H26.9125C26.7172 50.1517 26.4125 49.6767 26.0219 49.2923C25.3266 48.597 24.3656 48.1626 23.3031 48.1626C22.2453 48.1626 21.2828 48.597 20.5875 49.2923C19.8922 49.9876 19.4578 50.9485 19.4578 52.0079C19.4578 53.0704 19.8922 54.0313 20.5875 54.7267C21.2828 55.422 22.2437 55.8517 23.3031 55.8517C24.3656 55.8517 25.3266 55.422 26.0219 54.7267C26.4109 54.3376 26.7172 53.8673 26.9125 53.3454H30.225C30.9609 53.3454 31.5578 52.747 31.5578 52.0079V49.722H34.8359V49.7173ZM12.5797 40.0001C12.5797 38.4142 12.9656 36.961 13.6156 35.8063C14.2406 34.6954 15.1 33.8704 16.0781 33.4985C16.7641 33.2376 17.1094 32.4673 16.8484 31.7798C16.5875 31.0938 15.8172 30.7485 15.1297 31.0095C13.5578 31.6079 12.2203 32.8563 11.2937 34.5048C10.425 36.0454 9.9125 37.9501 9.9125 40.0017C9.9125 42.0563 10.4266 43.961 11.2937 45.4985C12.2188 47.1501 13.5609 48.3954 15.1297 48.9938C15.8156 49.2548 16.5875 48.9095 16.8484 48.2235C17.1094 47.5376 16.7641 46.7657 16.0781 46.5048C15.1 46.1329 14.2406 45.3095 13.6156 44.197C12.9641 43.0392 12.5797 41.586 12.5797 40.0001ZM79.8969 36.4251C79.8297 36.336 79.7281 36.2657 79.6047 36.222L74.8031 34.6626C74.2719 34.4892 73.8109 34.197 73.4437 33.8079C73.0813 33.422 72.8141 32.9485 72.6734 32.4079C72.3328 31.1063 71.9031 29.8392 71.3938 28.6079C70.8797 27.372 70.2828 26.1673 69.6047 25.0063C69.325 24.5282 69.175 24.0048 69.1625 23.4657C69.1453 22.9298 69.2641 22.4032 69.5172 21.9063L71.8109 17.4017C71.8734 17.2813 71.8906 17.1626 71.8781 17.0517C71.8609 16.9407 71.8031 16.8345 71.7047 16.7376L67.1344 12.1673C67.0406 12.0735 66.9313 12.0173 66.8203 11.9985C66.7141 11.9813 66.5906 12.0032 66.4703 12.0657L61.9703 14.3563C61.475 14.6095 60.9422 14.7282 60.4062 14.7157C59.8703 14.6985 59.3438 14.5517 58.8656 14.2688C57.7047 13.5907 56.5047 12.9938 55.2687 12.4845C54.0375 11.9704 52.7656 11.5454 51.4641 11.2001C50.9234 11.0579 50.45 10.797 50.0641 10.4298C49.675 10.0626 49.3813 9.60635 49.2094 9.0751L47.65 4.26885C47.6094 4.14541 47.5391 4.04697 47.4469 3.98135C47.3547 3.91572 47.2391 3.8751 47.1063 3.8751H45.2063V23.6782C49.1969 23.997 52.7891 25.7517 55.4547 28.422C58.4219 31.3845 60.2563 35.4813 60.2563 40.0048C60.2563 44.5313 58.4219 48.6235 55.4547 51.5876C52.7891 54.2579 49.1969 56.0126 45.2063 56.336V76.1345H47.1063C47.2391 76.1345 47.3547 76.0985 47.4469 76.0329C47.5406 75.9673 47.6109 75.8642 47.65 75.7407L49.2094 70.9392C49.3828 70.4079 49.675 69.947 50.0641 69.5798C50.45 69.2173 50.9234 68.9517 51.4641 68.8095C52.7656 68.4688 54.0375 68.0392 55.2687 67.5298C56.5047 67.0157 57.7047 66.4173 58.8656 65.7407C59.3438 65.461 59.8703 65.311 60.4062 65.2985C60.9422 65.2813 61.4734 65.4001 61.9703 65.6532L66.4703 67.947C66.5906 68.0095 66.7141 68.0313 66.8203 68.0142C66.9313 67.997 67.0422 67.9392 67.1344 67.8407L71.7047 63.2704C71.8016 63.1767 71.8594 63.0673 71.8781 62.961C71.8922 62.8501 71.8734 62.7267 71.8109 62.6063L69.5172 58.1063C69.2641 57.611 69.1453 57.0782 69.1625 56.5423C69.1766 56.0063 69.3266 55.4798 69.6047 55.0017C70.2828 53.8407 70.8797 52.6407 71.3938 51.4048C71.9031 50.1735 72.3328 48.9017 72.6734 47.6048C72.8156 47.0595 73.0813 46.586 73.4437 46.2001C73.8109 45.811 74.2719 45.522 74.8031 45.3454L79.6047 43.786C79.7281 43.747 79.8313 43.6751 79.8969 43.5829C79.9641 43.4892 79.9984 43.3751 79.9984 43.2423V36.7798C80 36.6376 79.9641 36.5188 79.8969 36.4251ZM45.2047 32.9532V38.6673H34.8359V41.3329H45.2047V47.0517H34.8359V49.7173H45.2047V53.6501C48.4594 53.336 51.3828 51.8876 53.5719 49.6985C56.0516 47.2142 57.5891 43.786 57.5891 39.9985C57.5891 36.211 56.0516 32.7829 53.5719 30.3032C51.3844 28.1157 48.4609 26.6626 45.2047 26.3485V30.286H34.8359V32.9517H45.2047V32.9532Z" fill="black" fill-opacity="0.19"/>
</g>
<defs>
<clipPath id="clip0_65_1030">
<rect width="80" height="80" fill="white"/>
</clipPath>
</defs>
</svg>
