<svg width="80" height="80" viewBox="0 0 80 80" fill="none" xmlns="http://www.w3.org/2000/svg">
<path d="M42.5 5H12.5C8.35785 5 5 8.35785 5 12.5V67.5C5 71.6422 8.35785 75 12.5 75H42.5C46.6422 75 50 71.6422 50 67.5V12.5C50 8.35785 46.6422 5 42.5 5ZM47.5 66.25C47.5 69.696 44.6973 72.5 41.25 72.5H13.75C10.304 72.5 7.5 69.696 7.5 66.25V13.75C7.5 10.304 10.304 7.5 13.75 7.5H41.25C44.6973 7.5 47.5 10.304 47.5 13.75V66.25Z" fill="#217191"/>
<path d="M41.25 10H32.5C32.5 12.7614 30.2614 15 27.5 15C24.7386 15 22.5 12.7614 22.5 10H13.75C11.6821 10 10 11.6821 10 13.75V66.25C10 68.3179 11.6821 70 13.75 70H41.25C43.3179 70 45 68.3179 45 66.25V13.75C45 11.6821 43.3179 10 41.25 10ZM24.5728 47.8088C25.0928 48.2642 25.1453 49.054 24.6912 49.5728C24.4434 49.856 24.0979 50 23.75 50C23.457 50 23.1641 49.8987 22.9272 49.6912L12.9272 40.9412C12.655 40.7031 12.5 40.3601 12.5 40C12.5 39.6399 12.655 39.2969 12.9272 39.0588L22.9272 30.3088C23.4473 29.8535 24.2358 29.9036 24.6912 30.4272C25.1453 30.946 25.0928 31.7358 24.5728 32.1912L15.6482 40L24.5728 47.8088ZM42.0728 40.9412L32.0728 49.6912C31.8359 49.8987 31.543 50 31.25 50C30.9021 50 30.5566 49.856 30.3088 49.5728C29.8547 49.054 29.9072 48.2642 30.4272 47.8088L39.3518 40L30.4272 32.1912C29.9072 31.7358 29.8547 30.946 30.3088 30.4272C30.7642 29.9036 31.5527 29.8535 32.0728 30.3088L42.0728 39.0588C42.345 39.2969 42.5 39.6399 42.5 40C42.5 40.3601 42.345 40.7031 42.0728 40.9412Z" fill="#217191"/>
<path d="M73.728 44.7424L70.2051 42.7551C70.3418 41.825 70.4102 40.9045 70.4102 40C70.4102 39.0955 70.3418 38.175 70.2051 37.2449L73.728 35.2576C74.314 34.9268 74.7412 34.375 74.9145 33.7268C75.0879 33.0774 74.9951 32.3865 74.6533 31.8079L69.5361 23.1482C68.8452 21.9788 67.3462 21.5735 66.1548 22.2424L62.5708 24.2651C61.0596 23.103 59.3848 22.1533 57.6172 21.4526V17.5C57.6172 16.1194 56.499 15 55.1172 15H52.5V30C58.0229 30 62.5 34.4771 62.5 40C62.5 45.5229 58.0229 50 52.5 50V65H55.1172C56.499 65 57.6172 63.8806 57.6172 62.5V58.5486C59.3848 57.8467 61.0596 56.8958 62.5708 55.7349L66.1548 57.7576C67.3462 58.4277 68.8452 58.0225 69.5361 56.8518L74.6533 48.1921C74.9951 47.6135 75.0879 46.9226 74.9145 46.2732C74.7412 45.625 74.314 45.0732 73.728 44.7424Z" fill="#217191"/>
</svg>
