<svg width="80" height="80" viewBox="0 0 80 80" fill="none" xmlns="http://www.w3.org/2000/svg">
<g clip-path="url(#clip0_65_1028)">
<path d="M65.5001 44.9562C66.4751 45.9312 67.0814 47.2812 67.0814 48.7702C67.0814 50.2624 66.4751 51.6093 65.5001 52.5874C64.522 53.5624 63.1751 54.164 61.686 54.164C60.1939 54.164 58.847 53.5624 57.8688 52.5874C56.8938 51.6093 56.2923 50.2624 56.2923 48.7702C56.2923 47.2827 56.8954 45.9312 57.8688 44.9562C58.847 43.9812 60.1939 43.3749 61.686 43.3749C63.1751 43.3749 64.522 43.9812 65.5001 44.9562ZM80.0017 47.6358V49.9077C80.0017 50.5858 79.5813 51.1655 78.9345 51.3733L77.322 51.8952C76.8173 52.0593 76.4579 52.4312 76.3173 52.9405C75.9939 54.0749 75.5423 55.1546 74.9798 56.1655C74.7235 56.6265 74.7142 57.1437 74.9532 57.614L75.7235 59.128C76.0329 59.7296 75.9189 60.4343 75.4407 60.9171L73.8329 62.5249C73.3548 63.003 72.6501 63.114 72.0438 62.8077L70.5298 62.0374C70.061 61.7937 69.5423 61.803 69.0813 62.064C68.072 62.6265 66.9907 63.078 65.8564 63.3968C65.347 63.5437 64.9751 63.9015 64.8157 64.4062L64.2892 66.0187C64.0814 66.6655 63.5048 67.0812 62.8235 67.0812H60.5517C59.8735 67.0812 59.2938 66.664 59.086 66.0187L58.5642 64.4062C58.4001 63.9015 58.0282 63.5421 57.5188 63.3968C56.3845 63.078 55.3048 62.6265 54.2938 62.064C53.8329 61.8077 53.3157 61.7937 52.8454 62.0374L51.3313 62.8077C50.7282 63.114 50.0251 63.003 49.5423 62.5249L47.9345 60.9171C47.4563 60.4343 47.3454 59.7296 47.6517 59.128L48.422 57.614C48.6657 57.1452 48.6563 56.6265 48.3954 56.1655C47.8329 55.1562 47.3814 54.0749 47.0626 52.9405C46.9157 52.4312 46.5579 52.0593 46.0532 51.8952L44.4407 51.3733C43.7938 51.1655 43.3782 50.5843 43.3782 49.9077V47.6358C43.3782 46.953 43.7938 46.378 44.4407 46.1702L46.0579 45.6437C46.5579 45.4796 46.9173 45.1124 47.0626 44.603C47.386 43.4687 47.8329 42.389 48.3954 41.378C48.6563 40.9171 48.6657 40.3999 48.422 39.9296L47.6517 38.4155C47.3454 37.8093 47.4563 37.1046 47.9345 36.6265L49.5423 35.0187C50.0251 34.5405 50.7298 34.4249 51.3313 34.7358L52.8454 35.5062C53.3142 35.7452 53.8329 35.7358 54.2938 35.4796C55.3032 34.9171 56.3845 34.4655 57.5188 34.1421C58.0282 33.9999 58.4001 33.6421 58.5642 33.1374L59.086 31.5249C59.2938 30.878 59.8751 30.4577 60.5517 30.4577H62.8235C63.5064 30.4577 64.0814 30.878 64.2892 31.5249L64.8157 33.1374C64.9751 33.6421 65.347 34.0015 65.8564 34.1421C66.9907 34.4655 68.0704 34.9171 69.0813 35.4796C69.5423 35.7358 70.0595 35.7452 70.5298 35.5062L72.0438 34.7358C72.6501 34.4265 73.3548 34.5405 73.8329 35.0187L75.4407 36.6265C75.9189 37.1046 76.0345 37.8093 75.7235 38.4155L74.9532 39.9296C74.7142 40.3983 74.7235 40.9171 74.9798 41.378C75.5423 42.3874 75.9939 43.4687 76.3173 44.603C76.4595 45.1124 76.8173 45.4843 77.322 45.6437L78.9345 46.1702C79.5813 46.378 80.0017 46.953 80.0017 47.6358ZM69.6595 48.7702C69.6595 46.5687 68.7689 44.5765 67.3251 43.1327C65.8813 41.689 63.8876 40.7936 61.686 40.7936C59.4798 40.7936 57.4876 41.689 56.0438 43.1327C54.6001 44.5765 53.7095 46.5702 53.7095 48.7702C53.7095 50.9765 54.6001 52.9687 56.0438 54.4124C57.4876 55.8562 59.4813 56.7468 61.686 56.7468C63.8876 56.7468 65.8798 55.8562 67.3251 54.4124C68.7689 52.9687 69.6595 50.9749 69.6595 48.7702ZM44.347 65.8312H38.7079L36.9892 61.039H24.6892L22.9751 65.8312H17.336C16.6235 65.8312 16.0423 66.4077 16.0423 67.1202C16.0423 67.8327 16.622 68.414 17.336 68.414H44.3454C45.0579 68.414 45.6392 67.8343 45.6392 67.1202C45.6407 66.4062 45.061 65.8312 44.347 65.8312ZM40.8485 46.9265H-0.00146484V15.6265C-0.00146484 13.403 1.81885 11.5874 4.04229 11.5874H57.6439C59.8673 11.5874 61.6876 13.403 61.6876 15.6265V27.8733H60.5501C58.7517 27.8733 57.1845 29.0155 56.6298 30.7265L56.2704 31.8202C55.3267 32.1218 54.4095 32.503 53.5282 32.9593L52.5001 32.4358C50.9017 31.6202 48.9829 31.9218 47.7126 33.1937L46.1048 34.8015C44.8329 36.0687 44.5329 37.9858 45.347 39.589L45.8689 40.6171C45.4173 41.4983 45.036 42.4155 44.7345 43.3593L43.636 43.714C42.1595 44.1936 41.1048 45.4343 40.8485 46.9265ZM16.2438 29.9015L24.7923 25.1265C25.4126 24.7812 25.6376 23.9968 25.2923 23.3765C24.947 22.7562 24.1626 22.5312 23.5423 22.8765L12.9923 28.7671C12.7845 28.8827 12.6032 29.0546 12.4782 29.2765C12.1329 29.8968 12.3579 30.6812 12.9782 31.0265L23.5423 36.9265C24.1626 37.2718 24.947 37.0499 25.2923 36.4265C25.6376 35.8062 25.4126 35.0218 24.7923 34.6765L16.2438 29.9015ZM33.336 19.028C32.6407 18.8687 31.9501 19.303 31.7907 19.9983L27.3845 39.2343C27.2251 39.9249 27.6595 40.6155 28.3501 40.7749C29.0454 40.9343 29.736 40.4999 29.8954 39.8046L34.3017 20.5733C34.461 19.878 34.0267 19.1874 33.336 19.028ZM38.1423 36.9265L48.7063 31.0265C49.3267 30.6812 49.5517 29.8968 49.2064 29.2765C49.0829 29.0546 48.9001 28.8827 48.6923 28.7671L38.1423 22.8765C37.522 22.5312 36.7376 22.7562 36.3923 23.3765C36.047 23.9968 36.272 24.7812 36.8923 25.1265L45.4407 29.9015L36.8923 34.6765C36.272 35.0218 36.047 35.8062 36.3923 36.4265C36.7376 37.0499 37.522 37.2718 38.1423 36.9265ZM43.6392 53.828C41.9298 53.2749 40.7907 51.7062 40.7907 49.9077V49.5093H-0.00146484V54.4171C-0.00146484 56.6358 1.81885 58.4562 4.04229 58.4562H45.1313C45.1938 58.2874 45.2642 58.1202 45.3485 57.9562L45.8704 56.928C45.4188 56.0468 45.0376 55.1296 44.7313 54.1858L43.6392 53.828Z" fill="black" fill-opacity="0.19"/>
</g>
<defs>
<clipPath id="clip0_65_1028">
<rect width="80" height="80" fill="white"/>
</clipPath>
</defs>
</svg>
