<svg width="80" height="80" viewBox="0 0 80 80" fill="none" xmlns="http://www.w3.org/2000/svg">
<g clip-path="url(#clip0_246_474)">
<path fill-rule="evenodd" clip-rule="evenodd" d="M47.1438 42.8708H41.4295C40.6405 42.8708 40.001 43.5104 40.001 44.2994V50.0137C40.001 52.3805 41.9197 54.2994 44.2867 54.2994C46.6535 54.2994 48.5724 52.3807 48.5724 50.0137V44.2994C48.5724 43.5104 47.9327 42.8708 47.1438 42.8708Z" fill="black" fill-opacity="0.19"/>
<path d="M18.5726 44.2993C18.5572 33.1846 25.6848 23.318 36.2415 19.8405C46.7982 16.363 58.3944 20.062 64.9877 29.0098C71.581 37.9576 71.6791 50.129 65.2307 59.182L68.3321 62.2833C68.5697 62.2165 68.8151 62.1809 69.0621 62.1776C69.7397 62.1797 70.3939 62.4257 70.905 62.8705H71.5835C72.3246 62.8171 72.8891 62.1843 72.8578 61.442V11.4424H0.00124707V61.442C-0.0300864 62.1833 0.53273 62.8156 1.27262 62.8705H26.5338C26.391 62.7362 26.2481 62.6205 26.1053 62.482C21.2668 57.6704 18.5542 51.123 18.5726 44.2993ZM9.58269 21.0237L5.29699 25.3094C4.73641 25.8507 3.84552 25.843 3.29442 25.292C2.74332 24.7409 2.73568 23.85 3.27704 23.2894L6.5527 20.0138L3.27704 16.7381C2.73568 16.1775 2.74345 15.2867 3.29442 14.7356C3.84538 14.1845 4.73641 14.1768 5.29699 14.7182L9.58269 19.0039C10.1404 19.5616 10.1404 20.4659 9.58269 21.0237ZM11.4298 24.2994C11.4298 23.5104 12.0694 22.8708 12.8583 22.8708H18.5726C19.3616 22.8708 20.0012 23.5104 20.0012 24.2994C20.0012 25.0883 19.3616 25.7279 18.5726 25.7279H12.8583C12.0694 25.7279 11.4298 25.0883 11.4298 24.2994Z" fill="black" fill-opacity="0.19"/>
<path fill-rule="evenodd" clip-rule="evenodd" d="M44.2865 38.5852C43.4975 38.5852 42.8579 39.2248 42.8579 40.0138H45.715C45.715 39.2248 45.0755 38.5852 44.2865 38.5852Z" fill="black" fill-opacity="0.19"/>
<path d="M72.8577 1.44248C72.8891 0.701145 72.3263 0.0688153 71.5864 0.013916H1.27262C0.532599 0.0688153 -0.0300861 0.701145 0.00124734 1.44248V8.58532H72.8577V1.44248ZM4.28682 5.72818C3.49782 5.72818 2.85825 5.08861 2.85825 4.29962C2.85825 3.51062 3.49782 2.87105 4.28682 2.87105C5.07581 2.87105 5.71538 3.51062 5.71538 4.29962C5.71538 5.08861 5.07581 5.72818 4.28682 5.72818ZM10.0011 5.72818C9.21209 5.72818 8.57252 5.08861 8.57252 4.29962C8.57252 3.51062 9.21209 2.87105 10.0011 2.87105C10.7901 2.87105 11.4296 3.51062 11.4296 4.29962C11.4296 5.08861 10.7901 5.72818 10.0011 5.72818ZM15.7153 5.72818C14.9264 5.72818 14.2868 5.08861 14.2868 4.29962C14.2868 3.51062 14.9264 2.87105 15.7153 2.87105C16.5043 2.87105 17.1439 3.51062 17.1439 4.29962C17.1439 5.08861 16.5043 5.72818 15.7153 5.72818ZM71.0105 4.71814C71.3819 5.07676 71.5308 5.60798 71.4001 6.10747C71.2694 6.60697 70.8793 6.99705 70.3798 7.12779C69.8803 7.25852 69.3492 7.10962 68.9904 6.73822L68.5719 6.3197L68.1534 6.73822C67.5928 7.27958 66.7019 7.27181 66.1508 6.72085C65.5997 6.16975 65.5921 5.27885 66.1334 4.71827L66.552 4.29975L66.1334 3.88122C65.5921 3.32064 65.5999 2.42975 66.1508 1.87865C66.7019 1.32755 67.5928 1.31991 68.1534 1.86127L68.5719 2.2798L68.9904 1.86127C69.3491 1.48988 69.8803 1.34098 70.3798 1.47171C70.8793 1.60244 71.2694 1.99253 71.4001 2.49202C71.5308 2.99151 71.3819 3.5226 71.0105 3.88135L70.592 4.29988L71.0105 4.71814Z" fill="black" fill-opacity="0.19"/>
<path fill-rule="evenodd" clip-rule="evenodd" d="M79.1637 75.1363L69.0624 65.0349L65.0225 69.0748L75.1238 79.1762C76.254 80.2558 78.0336 80.2558 79.1637 79.1762C80.2791 78.0605 80.2791 76.252 79.1637 75.1363Z" fill="black" fill-opacity="0.19"/>
<path fill-rule="evenodd" clip-rule="evenodd" d="M63.4291 61.4221C63.1105 61.7764 62.8077 62.1363 62.4676 62.4821C62.1276 62.8278 61.7534 63.1235 61.4048 63.4421L64.0076 66.0463L66.0304 64.0234L63.4291 61.4221Z" fill="black" fill-opacity="0.19"/>
<path d="M60.4478 28.1366C52.7368 20.4265 40.6533 19.2372 31.5869 25.2958C22.5205 31.3545 18.9965 42.9738 23.1699 53.0479C27.3433 63.122 38.0518 68.8453 48.7465 66.7175C59.4412 64.5898 67.1438 55.2037 67.1434 44.2994C67.1512 38.2355 64.7416 32.4187 60.4478 28.1366ZM58.4293 58.4421C51.6829 65.1892 41.1099 66.2311 33.1762 60.9307C25.2425 55.6304 22.1579 45.4638 25.8086 36.6484C29.4594 27.833 38.8288 22.8243 48.187 24.6851C57.5452 26.5459 64.2857 34.7581 64.2863 44.2994C64.2938 49.6052 62.1858 54.695 58.4293 58.4421Z" fill="black" fill-opacity="0.19"/>
<path d="M56.4079 32.1778C50.6248 26.3951 41.5619 25.5028 34.7621 30.0466C27.9622 34.5905 25.319 43.3051 28.449 50.8608C31.5791 58.4165 39.6106 62.709 47.6317 61.1132C55.6528 59.5173 61.4297 52.4775 61.4293 44.2993C61.435 39.7516 59.6278 35.3892 56.4079 32.1778ZM34.1867 34.1979C36.8596 31.5104 40.4963 30.0037 44.2866 30.0137C45.0756 30.0137 45.7152 30.6533 45.7152 31.4423C45.7152 32.2313 45.0756 32.8709 44.2866 32.8709C41.2543 32.8623 38.3446 34.0676 36.2067 36.218C35.6461 36.7594 34.7552 36.7516 34.2041 36.2006C33.653 35.6494 33.6452 34.7584 34.1867 34.1979ZM54.2865 48.5848H51.4293V49.422L53.8679 51.8606C54.2393 52.2192 54.3882 52.7505 54.2575 53.25C54.1268 53.7494 53.7367 54.1395 53.2372 54.2703C52.7377 54.401 52.2066 54.2521 51.8478 53.8807L50.8292 52.8621C49.6987 55.4694 47.1282 57.1565 44.2865 57.1565C41.4448 57.1565 38.8742 55.4692 37.7437 52.8621L36.7251 53.8807C36.1646 54.4221 35.2737 54.4143 34.7226 53.8633C34.1715 53.3122 34.1638 52.4213 34.7052 51.8607L37.1438 49.4221V48.585H34.2867C33.4977 48.585 32.8581 47.9454 32.8581 47.1564C32.8581 46.3674 33.4977 45.7278 34.2867 45.7278H37.1438V44.8906L34.7052 42.452C34.1638 41.8915 34.1716 41.0006 34.7226 40.4495C35.2735 39.8984 36.1646 39.8907 36.7251 40.4321L38.0223 41.7293C38.5255 41.0619 39.2134 40.5568 40.0009 40.2765V40.0136C40.0009 37.6467 41.9196 35.7279 44.2866 35.7279C46.6535 35.7279 48.5723 37.6466 48.5723 40.0136V40.2765C49.3596 40.5564 50.0475 41.061 50.5509 41.7279L51.8481 40.4308C52.4087 39.8894 53.2997 39.8972 53.8507 40.4481C54.4018 40.9992 54.4094 41.8901 53.8681 42.4507L51.4295 44.8906V45.7278H54.2866C55.0756 45.7278 55.7152 46.3674 55.7152 47.1564C55.715 47.9453 55.0755 48.5848 54.2865 48.5848Z" fill="black" fill-opacity="0.19"/>
</g>
<defs>
<clipPath id="clip0_246_474">
<rect width="80" height="80" fill="white"/>
</clipPath>
</defs>
</svg>
