<svg width="23" height="23" viewBox="0 0 23 23" fill="none" xmlns="http://www.w3.org/2000/svg">
<path d="M5.2145 10.3568H16.2274L12.8566 6.3082C12.699 6.11857 12.6232 5.87409 12.6458 5.62856C12.6685 5.38302 12.7877 5.15653 12.9774 4.99891C13.167 4.8413 13.4115 4.76547 13.657 4.78811C13.9025 4.81075 14.129 4.93 14.2866 5.11963L18.9295 10.6911C18.9607 10.7354 18.9887 10.7819 19.0131 10.8303C19.0131 10.8768 19.0131 10.9046 19.0781 10.9511C19.1202 11.0575 19.1422 11.1709 19.1431 11.2853C19.1422 11.3998 19.1202 11.5132 19.0781 11.6196C19.0781 11.6661 19.0781 11.6939 19.0131 11.7403C18.9887 11.7888 18.9607 11.8353 18.9295 11.8796L14.2866 17.4511C14.1993 17.5559 14.09 17.6402 13.9664 17.6979C13.8428 17.7557 13.7081 17.7856 13.5716 17.7853C13.3547 17.7858 13.1444 17.7102 12.9774 17.5718C12.8833 17.4938 12.8056 17.3981 12.7486 17.29C12.6917 17.182 12.6566 17.0638 12.6454 16.9422C12.6341 16.8206 12.647 16.6979 12.6833 16.5813C12.7195 16.4647 12.7785 16.3563 12.8566 16.2625L16.2274 12.2139H5.2145C4.96822 12.2139 4.73204 12.1161 4.5579 11.9419C4.38375 11.7678 4.28592 11.5316 4.28592 11.2853C4.28592 11.0391 4.38375 10.8029 4.5579 10.6287C4.73204 10.4546 4.96822 10.3568 5.2145 10.3568Z" fill="white"/>
</svg>
