<svg width="48" height="48" viewBox="0 0 48 48" fill="none" xmlns="http://www.w3.org/2000/svg">
<path d="M24 6L17.99 12.35L11.97 18.69L6 25V6H24Z" fill="#0D91D6"/>
<path d="M24 6H23.96L17.97 12.33L11.96 18.68L6 24.97V25V25.09V42L14.69 33.31L20.87 27.13L27.06 20.94L33.25 14.75L42 6H24Z" fill="#F88909"/>
<path d="M14.69 33.3098L6 41.9998V25.0898L14.69 33.3098Z" fill="#C757BC"/>
<path d="M20.87 27.1299L14.69 33.3099L6 25.0899V24.9999L11.97 18.6899L20.87 27.1299Z" fill="#D3638F"/>
<path d="M27.0602 20.9401L20.8702 27.1301L11.9702 18.6901L17.9902 12.3501L27.0602 20.9401Z" fill="#E07063"/>
<path d="M33.2502 14.75L27.0602 20.94L17.9902 12.35L24.0002 6L33.2502 14.75Z" fill="#EC7D36"/>
<path d="M42 6L33.25 14.75L24 6H42Z" fill="#F88909"/>
<path d="M11.51 19.1499L7.99 22.8799L6 20.9999V13.9399L11.51 19.1499Z" fill="#0095D5"/>
<path d="M15.03 15.4201L11.51 19.1501L6 13.9401V6.87012L15.03 15.4201Z" fill="#2B88DA"/>
<path d="M18.56 11.7L15.03 15.42L6 6.87V6H12.53L18.56 11.7Z" fill="#557BDE"/>
<path d="M22.0798 7.97L18.5598 11.7L12.5298 6H23.9998L22.0798 7.97Z" fill="#806EE3"/>
<path d="M23 25L6 42H9.35H17.52H40L23 25Z" fill="#0095D5"/>
<path d="M25.6798 41.9999H17.5198L11.7598 36.2499L15.8398 32.1699L25.6798 41.9999Z" fill="#2B88DA"/>
<path d="M33.8598 41.9998H25.6798L15.8398 32.1698L19.9198 28.0898L33.8598 41.9998Z" fill="#557BDE"/>
<path d="M41.9999 42H33.8599L19.9199 28.09L23.9999 24L41.9999 42Z" fill="#806EE3"/>
</svg>
