<svg width="48" height="48" viewBox="0 0 48 48" fill="none" xmlns="http://www.w3.org/2000/svg">
<path d="M2.861 21.998H5.778C6.828 21.998 8.039 22.894 8.039 23.998C8.039 25.102 6.829 25.998 5.778 25.998H2.861C1.811 25.998 1 25.103 1 23.998C1 22.893 1.811 21.998 2.861 21.998ZM43.021 20.998C41.62 20.998 40.5 22.341 40.5 23.998C40.5 25.655 41.63 26.998 43.021 26.998H47.04L48 25.998H43C42.102 25.951 41.711 25.36 41.5 24.498H47.04L48 23.498H41.5C41.713 22.637 42.092 22.003 43 21.998H47.04L48 20.998H43.021ZM34 20.998V26.424C34 26.572 34.095 26.716 34.201 26.826C34.307 26.936 34.45 26.998 34.606 26.998L38.54 27L39.54 26L35 25.998V21L34 20.998ZM27.842 20.998C26.251 20.998 24.991 22.344 24.991 24.001C24.991 25.658 26.251 26.998 27.842 26.998L31.491 26.986L32.64 25.998H27.821C26.771 25.998 25.981 25.104 25.981 23.999C25.981 22.894 26.771 21.998 27.821 21.998L31.51 22.014L32.64 20.998H27.842ZM21 20.998C20.742 20.998 20.478 21.213 20.33 21.481L17.5 26.998H18.5L21 21.998L22.691 24.998H20.04L20.981 25.978L23.162 25.972L23.82 26.997L24.901 26.988L21.624 21.481C21.394 21.112 21.25 20.998 21 20.998ZM10 20.998V26.998H11V21.998H14C14.515 21.998 15 22.462 15 22.998C15 23.534 14.515 23.998 14 23.998H11.5L14.981 26.998H16.5L14 24.998L14.337 24.989C15.077 24.99 16 24.119 16 22.998C16 21.877 15.313 21.012 14.447 20.998H10ZM2.882 20.998C1.291 20.998 0 22.342 0 23.998C0 25.654 1.291 26.998 2.882 26.998H5.76C7.351 26.998 9 25.655 9 23.998C9 22.341 7.351 20.998 5.76 20.998H2.882Z" fill="#EF0F14"/>
</svg>
