<svg width="48" height="48" viewBox="0 0 48 48" fill="none" xmlns="http://www.w3.org/2000/svg">
<path d="M44.0832 29.7901C43.9002 28.9611 43.1482 27.9941 41.6312 27.9941C41.3212 27.9941 40.9822 28.0331 40.5962 28.1131C39.8882 28.2591 39.2852 28.3301 38.7542 28.3541C42.8872 21.3141 45.5702 11.5351 42.9132 8.14014C39.4122 3.66714 34.6992 2.99914 32.2022 2.99914L31.9672 3.00014C31.0382 3.01514 30.0742 3.12914 29.1042 3.33914L25.5212 4.11314C25.0332 4.05214 24.5362 4.00914 24.0182 4.00014H23.9882H23.9722L23.8202 3.99914C22.2272 3.99914 20.7742 4.33714 19.4792 4.97214L18.2282 4.47914C16.5082 3.80114 13.9202 2.99414 11.3602 2.99414C11.2162 2.99414 11.0732 2.99714 10.9292 3.00214C8.40724 3.09314 6.24124 4.05014 4.66424 5.76914C2.69624 7.91514 1.80024 11.0541 2.00324 15.1001C2.01324 15.3091 4.46124 36.0001 11.4002 36.0001H11.4252L11.4892 35.9991C12.3902 35.9771 13.2492 35.6151 14.0522 34.9221C14.6652 35.3821 15.4582 35.6541 16.1972 35.7621C16.6852 35.8771 17.5632 36.0401 18.6152 36.0401C19.8992 36.0401 21.0572 35.7771 22.0552 35.3021C22.0542 36.1821 22.0492 37.2961 22.0392 38.7201L22.0382 38.7951L22.0432 38.8701C22.1402 40.2891 22.3852 41.5681 22.7542 42.5711C23.8052 45.4301 25.6202 47.0051 27.8652 47.0051C27.9582 47.0051 28.0532 47.0021 28.1492 46.9961C29.9952 46.8821 31.8662 45.8451 33.1532 44.2241C34.5462 42.4691 34.8682 40.6171 34.9922 39.1981L35.0002 39.1111V39.0231V34.9441L35.1032 34.9541L35.5392 34.9921L35.5812 34.9961L35.6232 34.9981C35.7472 35.0041 35.8752 35.0061 36.0042 35.0061C37.5112 35.0061 39.3662 34.6151 40.6202 34.0321C41.8192 33.4761 44.5592 31.9481 44.0832 29.7901Z" fill="white"/>
<path d="M33.0001 33.9998C33.0001 33.7948 33.0121 33.6238 33.0181 33.4348C33.0081 33.1838 33.0001 32.9998 33.0001 32.9998C33.0001 32.9998 33.0121 32.9908 33.0321 32.9778C33.1811 30.3048 33.9181 29.2748 34.7071 28.6878C34.5971 28.5348 34.4701 28.3698 34.3511 28.2128C34.0181 27.7758 33.6031 27.2338 33.1591 26.5388L33.0771 26.3808C33.0101 26.2168 32.8481 25.9338 32.6421 25.5618C31.4591 23.4218 28.9971 18.9698 30.6821 16.1578C31.4201 14.9258 32.8041 14.2158 34.8031 14.0408C33.9861 11.7178 30.9251 6.11483 23.9851 5.99983C23.9831 5.99983 23.9811 5.99983 23.9791 5.99983C17.9381 5.90183 15.9531 11.3918 15.3071 14.6718C16.1971 14.2948 17.2131 14.0658 18.1431 14.0658C18.1571 14.0658 18.1721 14.0658 18.1861 14.0658C20.4761 14.0828 22.0511 15.3048 22.5091 17.4198C22.8441 18.9718 23.0051 20.3298 23.0011 21.5728C22.9911 24.2918 22.4431 25.7218 21.9591 26.9838L21.8051 27.3918C21.6811 27.7258 21.5501 28.0368 21.4261 28.3288C21.3001 28.6268 21.1891 28.8918 21.1081 29.1308C21.5921 29.2408 21.9721 29.3958 22.2331 29.5108L22.3841 29.5768C22.4311 29.5968 22.4781 29.6198 22.5211 29.6458C23.3691 30.1618 23.8971 30.9548 24.0101 31.8788C24.0711 32.3768 24.0611 35.7718 24.0401 38.7338C24.1271 40.0188 24.3451 41.0978 24.6331 41.8798C25.0421 42.9938 26.0641 45.1208 28.0271 44.9988C29.3971 44.9138 30.7141 44.0798 31.5881 42.9798C32.5261 41.7988 32.8721 40.4928 33.0021 39.0218V33.9998H33.0001Z" fill="#0277BD"/>
<path d="M15.1139 28.9171C13.5009 27.2341 12.7149 24.9701 13.0099 22.8611C13.2949 20.8261 13.1339 18.8341 13.0469 17.7631C13.0179 17.4061 12.9989 17.1401 12.9999 16.9931C12.9999 16.9851 13.0019 16.9781 13.0029 16.9701C13.0029 16.9661 13.0009 16.9631 13.0009 16.9591C13.1219 13.9381 14.2869 9.1721 17.4939 6.3391C15.9319 5.7241 13.3879 4.9131 10.9999 5.0001C7.25792 5.1361 3.63592 7.7241 3.99992 15.0001C4.13692 17.7301 7.22192 34.1031 11.4399 34.0001C12.0429 33.9851 12.6689 33.5981 13.3119 32.8241C14.3289 31.6011 15.3169 30.4921 16.0199 29.7201C15.7049 29.4811 15.4009 29.2171 15.1139 28.9171ZM37.0229 14.7311C37.0379 14.8851 37.0249 15.0171 37.0009 15.1391C37.0319 16.0591 36.9329 16.9521 36.8319 17.8161C36.7579 18.4521 36.6819 19.1091 36.6609 19.7681C36.6399 20.4131 36.7309 21.0501 36.8269 21.7241C37.0519 23.3021 37.2859 25.0831 36.0619 27.1611C36.2869 27.4571 36.4849 27.7321 36.6429 27.9981C41.2529 20.5231 43.1109 11.6371 41.3379 9.3721C38.6549 5.9441 34.9409 4.9521 31.9989 5.0001C31.0779 5.0151 30.2409 5.1391 29.5259 5.2941C34.6019 7.7541 36.8629 13.0261 37.0229 14.7311ZM40.9999 30.0711C38.3349 30.6211 37.0529 30.3281 36.4309 29.9451C36.3309 30.0171 36.2309 30.0781 36.1379 30.1351C35.7659 30.3601 35.1769 30.7181 35.0329 32.9171C35.1159 32.9331 35.1889 32.9421 35.2789 32.9611L35.7139 33.0001C37.0339 33.0601 38.7629 32.6901 39.7769 32.2191C41.9619 31.2051 43.1529 29.6271 40.9999 30.0711ZM22.0229 32.1191C21.9859 31.8211 21.8249 31.5801 21.5309 31.3871L21.4229 31.3401C21.0619 31.1811 20.6529 31.0001 19.9999 31.0001H19.9959C19.8689 31.0101 19.7429 31.0191 19.6159 31.0191C19.5639 31.0191 19.5129 31.0121 19.4609 31.0101C18.9869 31.3751 18.3129 31.6571 16.6449 32.0001C13.6649 32.7591 15.4239 33.6551 16.5669 33.7941C17.6729 34.0711 20.3019 34.4081 22.0479 32.9851C22.0429 32.5371 22.0349 32.2291 22.0229 32.1191Z" fill="#0277BD"/>
<path d="M20.6809 18.5012C20.3889 18.8032 19.9279 19.0672 19.4189 18.9852C18.5909 18.8512 17.9559 17.8522 18.0019 17.4772C18.0459 17.1032 18.7529 16.9082 19.5799 17.0422C19.8669 17.0892 20.1279 17.1702 20.3479 17.2702C20.0279 16.5822 19.4489 16.1852 18.5659 16.0882C17.0009 15.9142 15.3399 16.7322 15.0059 17.1852C15.0129 17.2952 15.0259 17.4362 15.0389 17.6022C15.1319 18.7492 15.3039 20.8862 14.9889 23.1392C14.7809 24.6242 15.3819 26.3082 16.5559 27.5342C17.3129 28.3242 18.1969 28.8242 19.0689 28.9722C19.1799 28.4942 19.3779 28.0282 19.5819 27.5472C19.6949 27.2822 19.8149 27.0002 19.9279 26.6952L20.0899 26.2682C20.5329 25.1132 20.9899 23.9182 20.9989 21.5652C21.0029 20.6602 20.8919 19.6272 20.6809 18.5012ZM34.8469 22.0072C34.7429 21.2782 34.6359 20.5232 34.6619 19.7042C34.6849 18.9622 34.7669 18.2622 34.8459 17.5852C34.9079 17.0522 34.9559 16.5402 34.9839 16.0352C33.6949 16.1422 32.8389 16.5142 32.4329 17.1432C32.6009 17.0862 32.7909 17.0412 33.0009 17.0142C33.8929 16.8982 34.5439 17.1552 34.6189 17.6512C34.6739 18.0142 34.3659 18.3562 34.2309 18.4872C33.9539 18.7562 33.6049 18.9292 33.2499 18.9752C33.1859 18.9832 33.1209 18.9872 33.0579 18.9872C32.7049 18.9872 32.3679 18.8662 32.1089 18.6872C32.2209 20.6602 33.6759 23.2992 34.3919 24.5942C34.5449 24.8712 34.6629 25.0922 34.7609 25.2822C35.1539 24.1632 35.0089 23.1432 34.8469 22.0072Z" fill="#0277BD"/>
</svg>
