<svg width="48" height="48" viewBox="0 0 48 48" fill="none" xmlns="http://www.w3.org/2000/svg">
<path d="M43.6506 2.53832C42.9794 4.15195 42.1207 5.67962 41.0904 7.08617C34.9669 0.932502 26.0099 -1.44301 17.6501 0.869988C9.28638 3.17908 2.81552 9.82114 0.71581 18.2487C-1.3839 26.6724 1.21147 35.5806 7.5067 41.5506L8.39654 42.336C15.3123 48.1692 24.9132 49.6266 33.2418 46.1024C41.5704 42.5782 47.2217 34.6742 47.8657 25.6449C48.5214 19.5146 46.7222 11.7591 43.6545 2.53832H43.6506ZM10.9295 41.6913C10.2153 42.5743 8.91952 42.711 8.03749 41.996C7.15155 41.281 7.01885 39.9839 7.73307 39.1009C8.44728 38.2179 9.74302 38.0811 10.6251 38.8C11.5071 39.515 11.6437 40.8083 10.9295 41.6913ZM43.5531 34.4827C37.6169 42.3985 24.9484 39.726 16.8227 40.1089C16.8227 40.1089 15.3826 40.1949 13.9307 40.4332C13.9307 40.4332 14.481 40.1988 15.1796 39.937C20.8855 37.9483 23.5824 37.5654 27.0481 35.7799C33.5736 32.4588 40.0288 25.1877 41.3675 17.6275C38.8853 24.8986 31.349 31.1539 24.4839 33.6935C19.781 35.4282 11.2885 37.12 11.2885 37.12L10.9451 36.9324C5.16502 34.1193 4.98549 21.5893 15.4997 17.5455C20.1011 15.7716 24.5034 16.7445 29.4756 15.5567C34.7835 14.2948 40.9265 10.3134 43.4243 5.1209C46.2187 13.4313 49.5868 26.4419 43.5492 34.4866L43.5531 34.4827Z" fill="#68BD45"/>
</svg>
