<svg width="44" height="44" viewBox="0 0 44 44" fill="none" xmlns="http://www.w3.org/2000/svg">
<circle cx="22" cy="22" r="21.5" fill="white" stroke="#DBDBDB"/>
<path d="M18.2515 14.9936C18.2513 15.469 18.0622 15.9248 17.7258 16.2608C17.3895 16.5968 16.9335 16.7854 16.4581 16.7852C15.9827 16.7849 15.5269 16.5959 15.1909 16.2595C14.8549 15.9232 14.6663 15.4672 14.6665 14.9918C14.6667 14.5164 14.8558 14.0606 15.1921 13.7246C15.5285 13.3886 15.9845 13.2 16.4599 13.2002C16.9353 13.2004 17.3911 13.3895 17.7271 13.7258C18.0631 14.0622 18.2517 14.5182 18.2515 14.9936ZM18.3053 18.1125H14.7203V29.3335H18.3053V18.1125ZM23.9695 18.1125H20.4025V29.3335H23.9337V23.4452C23.9337 20.1649 28.2088 19.8602 28.2088 23.4452V29.3335H31.749V22.2263C31.749 16.6965 25.4215 16.9026 23.9337 19.6182L23.9695 18.1125Z" fill="#131414"/>
</svg>
